<svg width="23" height="14" viewBox="0 0 23 14" fill="none" xmlns="http://www.w3.org/2000/svg">
<path d="M1 1.5H2.65424C3.13263 1.5 3.37183 1.5 3.56628 1.58674C3.73771 1.66321 3.88415 1.78638 3.98886 1.94217C4.10763 2.11888 4.14862 2.35454 4.23058 2.82585L4.6087 5M4.6087 5L5.49173 10.0774C5.67091 11.1077 5.7605 11.6228 6.02583 11.9939C6.25945 12.3207 6.58606 12.5695 6.96311 12.708C7.39133 12.8654 7.91176 12.815 8.95264 12.7143L18.614 11.7793C19.6298 11.681 20.1378 11.6318 20.5221 11.4033C20.8653 11.1993 21.1395 10.8972 21.3095 10.536C21.5 10.1314 21.5 9.6211 21.5 8.6005V8.6005C21.5 7.51582 21.5 6.97348 21.2922 6.55394C21.1068 6.17971 20.809 5.8729 20.4404 5.67654C20.0272 5.4564 19.4851 5.44036 18.4009 5.40826L4.6087 5Z" stroke="#262F56" stroke-width="1.8" stroke-linecap="round" stroke-linejoin="round"/>
</svg>
